<svg width="810" height="607" viewBox="0 0 810 607" fill="none" xmlns="http://www.w3.org/2000/svg">
<path d="M686.019 545.39H137.244L82.5694 285.391C80.6962 276.59 82.8731 267.384 88.4419 260.352L214.093 101.571C219.307 94.9955 227.053 90.8477 235.406 90.1395L586.086 61.2058C597.476 60.2447 608.411 65.8089 614.436 75.5209L723.532 252.006C727.329 258.127 728.797 265.411 727.734 272.543L686.019 545.39Z" fill="#F0F0F0"/>
<path d="M702.574 545.39H114.564C114.362 545.39 114.159 545.238 114.159 544.985C114.159 544.732 114.362 544.58 114.564 544.58H702.624C702.827 544.58 703.029 544.732 703.029 544.985C703.029 545.238 702.827 545.39 702.574 545.39Z" fill="#ADB1B6"/>
<path d="M538.549 312.757H349.009C344.908 312.757 341.567 309.418 341.567 305.321V194.189C341.567 190.092 344.908 186.754 349.009 186.754H538.549C542.649 186.754 545.991 190.092 545.991 194.189V305.321C545.991 309.469 542.649 312.757 538.549 312.757Z" fill="#00D6D0"/>
<path opacity="0.5" d="M538.549 312.757H349.009C344.908 312.757 341.567 309.418 341.567 305.321V194.189C341.567 190.092 344.908 186.754 349.009 186.754H538.549C542.649 186.754 545.991 190.092 545.991 194.189V305.321C545.991 309.469 542.649 312.757 538.549 312.757Z" fill="white"/>
<path d="M533.537 312.757H343.946C339.846 312.757 336.504 309.418 336.504 305.321V194.189C336.504 190.092 339.846 186.754 343.946 186.754H533.537C537.637 186.754 540.979 190.092 540.979 194.189V305.321C540.979 309.469 537.637 312.757 533.537 312.757Z" fill="#00D6D0"/>
<path opacity="0.7" d="M533.537 312.757H343.946C339.846 312.757 336.504 309.418 336.504 305.321V194.189C336.504 190.092 339.846 186.754 343.946 186.754H533.537C537.637 186.754 540.979 190.092 540.979 194.189V305.321C540.979 309.469 537.637 312.757 533.537 312.757Z" fill="white"/>
<path d="M442.412 253.321H441.146V312.807H442.412V253.321Z" fill="white"/>
<path d="M443.677 253.473H442.412V312.757H443.677V253.473Z" fill="#E6E6E6"/>
<path d="M519.21 253.321H517.944V312.807H519.21V253.321Z" fill="white"/>
<path d="M520.476 253.473H519.21V312.757H520.476V253.473Z" fill="#E6E6E6"/>
<path d="M530.499 249.882H435.78V254.738H530.499V249.882Z" fill="#E6E6E6"/>
<path d="M518.603 254.738H476.888V262.831H518.603V254.738Z" fill="white"/>
<path d="M499.618 258.228C499.618 258.734 499.213 259.138 498.707 259.138C498.201 259.138 497.796 258.734 497.796 258.228C497.796 257.722 498.201 257.317 498.707 257.317C499.213 257.267 499.618 257.722 499.618 258.228Z" fill="#E1E1E1"/>
<path d="M401.811 204.357H352.755V312.807H401.811V204.357Z" fill="#E6E6E6"/>
<path d="M401.811 204.357H355.084V312.807H401.811V204.357Z" fill="white"/>
<path d="M399.33 206.785H357.514V310.278H399.33V206.785Z" fill="#E6E6E6"/>
<path d="M390.268 256.913H393.761C394.723 256.913 395.483 256.154 395.483 255.193C395.483 254.232 394.672 253.473 393.761 253.473H390.268C389.306 253.473 388.547 254.232 388.547 255.193C388.496 256.154 389.306 256.913 390.268 256.913Z" fill="white"/>
<path d="M399.33 206.785H398.672V310.278H399.33V206.785Z" fill="#F0F0F0"/>
<path d="M436.388 201.777C452.284 201.777 465.193 214.676 465.193 230.559V257.975C465.193 261.061 462.662 263.59 459.574 263.59H418.213L415.733 255.85L413.252 263.59C410.164 263.59 407.633 261.061 407.633 257.975V230.559C407.633 214.676 420.491 201.777 436.388 201.777Z" fill="#2F2E41"/>
<path d="M438.008 252.208L436.894 252.259C428.642 252.613 421.706 246.24 421.403 238.045L420.542 217.205C420.39 214.473 422.567 212.197 425.301 212.045L444.842 211.185C448.386 211.034 451.423 213.816 451.575 217.357L452.385 236.73C452.588 244.924 446.209 251.854 438.008 252.208Z" fill="#906363"/>
<path d="M425.706 234.1L425.047 258.279C424.997 260.251 423.63 261.921 421.757 262.426L419.023 263.185L425.351 267.029C431.629 270.924 439.425 271.582 446.209 269.002C447.474 268.547 448.639 267.94 449.803 267.232L455.827 263.64L453.499 263.387C451.018 262.477 450.562 260.251 450.36 258.531L447.221 229.8L425.706 234.1Z" fill="#906363"/>
<path opacity="0.3" d="M426.414 248.819C426.667 248.769 426.718 248.87 426.87 249.022C428.794 250.539 431.73 252.461 436.843 252.31C443.678 252.158 447.576 248.364 448.942 246.695L449.398 250.893C448.487 251.551 446.715 252.714 444.842 252.613C443.07 252.512 441.804 252.259 441.804 252.259C440.286 252.816 438.514 253.17 436.438 253.17C431.173 253.17 427.882 251.197 426.111 249.679C425.959 249.528 425.857 249.275 426.009 249.072C426.111 248.971 426.262 248.819 426.414 248.819Z" fill="black"/>
<path d="M421.251 238.5C421.251 238.5 414.821 238.753 413.708 232.43C412.594 226.057 420.491 225.146 421.352 231.571L421.807 238.551L421.251 238.5Z" fill="#906363"/>
<path opacity="0.15" d="M415.783 229.143C416.492 228.687 417.15 228.586 417.707 228.687C418.314 228.839 418.821 229.244 419.175 229.952C419.58 230.66 419.833 231.571 419.783 232.481V233.139C419.783 233.644 418.922 233.746 418.922 233.139C418.871 232.38 418.871 232.38 418.871 232.38C418.922 232.127 418.77 230.964 418.365 230.306C418.061 229.8 417.758 229.497 417.353 229.395C416.998 229.294 416.543 229.446 416.036 229.699C415.834 229.8 415.581 229.75 415.429 229.547C415.53 229.497 415.631 229.244 415.783 229.143Z" fill="black"/>
<path d="M419.58 237.438C420.289 237.438 420.846 236.882 420.846 236.174C420.846 235.465 420.289 234.909 419.58 234.909C418.871 234.909 418.314 235.465 418.314 236.174C418.314 236.882 418.871 237.438 419.58 237.438Z" fill="#00D6D0"/>
<path opacity="0.15" d="M419.985 237.286C419.226 237.236 418.618 236.629 418.618 235.87C418.669 235.617 418.719 235.364 418.871 235.162C418.568 235.364 418.314 235.769 418.264 236.174C418.213 236.882 418.77 237.438 419.479 237.489C419.732 237.539 420.036 237.438 420.238 237.286C420.188 237.286 420.036 237.236 419.985 237.286Z" fill="black"/>
<path d="M451.929 238.5C451.929 238.5 458.359 238.753 459.472 232.43C460.586 226.057 452.689 225.146 451.828 231.571L451.373 238.551L451.929 238.5Z" fill="#906363"/>
<path opacity="0.15" d="M457.346 229.143C456.638 228.687 455.979 228.586 455.423 228.687C454.815 228.839 454.309 229.244 453.954 229.952C453.549 230.66 453.296 231.571 453.347 232.481V233.139C453.347 233.644 454.208 233.746 454.208 233.139C454.258 232.38 454.258 232.38 454.258 232.38C454.208 232.127 454.359 230.964 454.764 230.306C455.068 229.8 455.372 229.497 455.777 229.395C456.131 229.294 456.587 229.446 457.093 229.699C457.296 229.8 457.549 229.75 457.701 229.547C457.65 229.497 457.549 229.244 457.346 229.143Z" fill="black"/>
<path d="M453.549 237.438C454.258 237.438 454.815 236.882 454.815 236.174C454.815 235.465 454.258 234.909 453.549 234.909C452.841 234.909 452.284 235.465 452.284 236.174C452.284 236.882 452.841 237.438 453.549 237.438Z" fill="#00D6D0"/>
<path opacity="0.15" d="M453.144 237.286C453.904 237.236 454.511 236.629 454.511 235.87C454.461 235.617 454.41 235.364 454.258 235.162C454.562 235.364 454.815 235.769 454.866 236.174C454.916 236.882 454.359 237.438 453.651 237.489C453.397 237.539 453.094 237.438 452.891 237.286C452.992 237.286 453.094 237.236 453.144 237.286Z" fill="black"/>
<path d="M452.638 211.641L439.779 206.633L432.489 206.329C426.87 207.189 420.238 209.87 418.973 215.434L419.631 223.022H428.439L430.92 217.306V223.072H434.97L437.349 213.715L438.919 223.072H453.246L452.638 211.641Z" fill="#2F2E41"/>
<path d="M429.503 235.415C430.414 235.415 431.122 234.707 431.122 233.796C431.122 232.886 430.414 232.177 429.503 232.177C428.591 232.177 427.883 232.886 427.883 233.796C427.883 234.707 428.642 235.415 429.503 235.415Z" fill="#21252B"/>
<path d="M430.161 233.796C430.363 233.796 430.515 233.644 430.515 233.442C430.515 233.24 430.363 233.088 430.161 233.088C429.958 233.088 429.806 233.24 429.806 233.442C429.857 233.644 430.009 233.796 430.161 233.796Z" fill="white"/>
<path d="M442.057 235.415C442.969 235.415 443.677 234.707 443.677 233.796C443.677 232.886 442.969 232.177 442.057 232.177C441.146 232.177 440.438 232.886 440.438 233.796C440.438 234.707 441.197 235.415 442.057 235.415Z" fill="#21252B"/>
<path d="M442.716 233.746C442.918 233.746 443.07 233.594 443.07 233.392C443.07 233.189 442.918 233.037 442.716 233.037C442.513 233.037 442.361 233.189 442.361 233.392C442.412 233.594 442.564 233.746 442.716 233.746Z" fill="white"/>
<path d="M443.475 226.462C441.45 226.664 439.729 227.726 438.666 229.294C436.843 228.687 435.324 229.092 434.616 229.345C433.401 227.321 431.123 226.057 428.591 226.259C425.047 226.512 422.364 229.699 422.617 233.24C422.871 236.781 426.06 239.461 429.604 239.209C433.148 238.956 435.831 235.769 435.578 232.228C435.527 231.469 435.324 230.812 435.021 230.154C435.628 229.952 436.894 229.699 438.261 230.104C437.704 231.115 437.501 232.329 437.603 233.543C437.856 237.084 441.045 239.765 444.589 239.512C448.133 239.259 450.816 236.072 450.563 232.532C450.259 228.94 447.12 226.259 443.475 226.462ZM429.654 238.349C426.566 238.602 423.883 236.275 423.63 233.189C423.377 230.104 425.706 227.423 428.794 227.17C431.882 226.917 434.565 229.244 434.818 232.329C435.021 235.364 432.692 238.146 429.654 238.349ZM444.488 238.602C441.399 238.854 438.716 236.528 438.463 233.442C438.21 230.356 440.539 227.676 443.627 227.423C446.715 227.17 449.398 229.497 449.651 232.582C449.955 235.668 447.576 238.349 444.488 238.602Z" fill="white"/>
<g opacity="0.3">
<path opacity="0.3" d="M436.59 240.928H435.122C434.869 240.928 434.616 240.676 434.616 240.423C434.616 240.17 434.869 239.917 435.122 239.917H436.59C437.198 239.917 437.653 239.462 437.653 238.855C437.653 238.248 437.198 237.742 436.59 237.742C436.337 237.742 436.084 237.489 436.084 237.236C436.084 236.983 436.337 236.73 436.59 236.73C437.754 236.73 438.666 237.691 438.666 238.804C438.666 240.018 437.754 240.979 436.59 240.928Z" fill="black"/>
</g>
<path d="M432.186 242.749L440.893 242.598C441.096 242.598 441.298 242.8 441.197 243.053C439.678 247.454 433.603 247.555 431.882 243.255V243.205C431.831 243.002 431.983 242.749 432.186 242.749Z" fill="white"/>
<path d="M438.767 297.481L419.023 263.893L405.962 266.574C399.887 267.99 396.039 274.061 396.343 280.434L407.025 292.473C407.025 292.473 409.151 301.375 410.265 312.757H437.856L438.767 297.481Z" fill="#21242B"/>
<path d="M475.672 268.901L460.536 265.057L438.868 294.496L437.856 312.757H465.851C468.99 294.8 475.672 268.901 475.672 268.901Z" fill="#21242B"/>
<path opacity="0.15" d="M438.868 295.609L440.792 291.461L440.589 302.691H438.413L438.868 295.609Z" fill="black"/>
<path d="M410.214 312.757H411.075L413.505 287.01L414.315 264.905L403.026 267.131C398.267 268.294 394.824 272.492 394.622 277.399L393.458 304.158L393.103 312.757H408.847L409.303 303.5L410.214 312.757Z" fill="#21242B"/>
<path d="M483.975 305.574L482.811 278.815C482.608 273.909 479.166 269.761 474.407 268.547L460.485 265.107L465.345 288.578L468.129 312.807H484.329L483.975 305.574Z" fill="#21242B"/>
<path d="M414.315 264.905L424.288 261.212L438.919 270.621L430.92 283.317L414.315 264.905Z" fill="#FBFBFB"/>
<path d="M460.485 265.107L450.563 260.909L438.919 270.621L447.93 283.317L460.485 265.107Z" fill="#FBFBFB"/>
<path d="M414.315 264.905L438.058 307.8L460.485 265.107L447.93 283.368L438.919 270.621L430.92 283.317L414.315 264.905Z" fill="#FBFBFB"/>
<path opacity="0.15" d="M438.919 270.621L447.93 282.811L460.434 265.158L447.373 287.667L438.919 270.621Z" fill="black"/>
<path opacity="0.15" d="M438.919 270.621L430.92 283.317L414.366 264.905L432.287 288.477L438.919 270.621Z" fill="black"/>
<path opacity="0.15" d="M440.235 303.702L438.058 307.8L437.805 312.757H439.729L440.235 303.702Z" fill="black"/>
<path d="M538.549 312.757H349.009C344.908 312.757 341.567 309.418 341.567 305.321V285.644H546.041V305.321C545.991 309.469 542.649 312.757 538.549 312.757Z" fill="#61656D"/>
<path opacity="0.5" d="M538.549 312.757H349.009C344.908 312.757 341.567 309.418 341.567 305.321V285.644H546.041V305.321C545.991 309.469 542.649 312.757 538.549 312.757Z" fill="black"/>
<path d="M533.537 312.757H343.946C339.846 312.757 336.504 309.418 336.504 305.321V285.644H540.979V305.321C540.979 309.469 537.637 312.757 533.537 312.757Z" fill="#61656D"/>
<path d="M450.816 305.625C454.764 305.625 458.004 302.387 458.004 298.442C458.004 294.496 454.764 291.259 450.816 291.259C446.867 291.259 443.627 294.496 443.627 298.442C443.627 302.438 446.816 305.625 450.816 305.625Z" fill="#00D6D0"/>
<path opacity="0.5" d="M450.816 305.625C454.764 305.625 458.004 302.387 458.004 298.442C458.004 294.496 454.764 291.259 450.816 291.259C446.867 291.259 443.627 294.496 443.627 298.442C443.627 302.438 446.816 305.625 450.816 305.625Z" fill="white"/>
<path d="M447.981 302.134C448.133 302.286 448.386 302.286 448.538 302.134L454.41 296.216C454.562 296.014 454.562 295.761 454.41 295.609L453.6 294.8C453.448 294.648 453.144 294.648 452.993 294.8L448.335 299.504L447.12 300.718C446.968 300.87 446.968 301.123 447.12 301.274L447.981 302.134Z" fill="white"/>
<path d="M453.651 302.134C453.499 302.286 453.246 302.286 453.094 302.134L447.221 296.216C447.069 296.014 447.069 295.761 447.221 295.609L448.031 294.8C448.234 294.648 448.487 294.648 448.639 294.8L453.296 299.504L454.511 300.718C454.663 300.87 454.663 301.123 454.511 301.274L453.651 302.134Z" fill="white"/>
<path d="M426.667 305.625C430.616 305.625 433.856 302.387 433.856 298.442C433.856 294.496 430.616 291.259 426.667 291.259C422.719 291.259 419.479 294.496 419.479 298.442C419.479 302.438 422.719 305.625 426.667 305.625Z" fill="#00D6D0"/>
<path opacity="0.5" d="M426.667 305.625C430.616 305.625 433.856 302.387 433.856 298.442C433.856 294.496 430.616 291.259 426.667 291.259C422.719 291.259 419.479 294.496 419.479 298.442C419.479 302.438 422.719 305.625 426.667 305.625Z" fill="white"/>
<path d="M427.882 301.325H423.377C422.972 301.325 422.668 301.021 422.668 300.617V296.722C422.668 296.317 422.972 296.014 423.377 296.014H427.882C428.287 296.014 428.591 296.317 428.591 296.722V300.617C428.591 300.971 428.287 301.325 427.882 301.325Z" fill="#FCFCFC"/>
<path d="M428.591 297.733V299.352C428.591 299.453 428.642 299.504 428.692 299.555L430.616 300.566C430.768 300.667 430.971 300.516 430.971 300.364V296.974C430.971 296.823 430.819 296.671 430.667 296.772L428.743 297.531C428.642 297.531 428.591 297.632 428.591 297.733Z" fill="#FCFCFC"/>
<path opacity="0.3" d="M341.212 326.92C341.212 326.92 346.984 323.025 347.034 322.62" stroke="black" stroke-width="0.75" stroke-miterlimit="10" stroke-linecap="round" stroke-linejoin="round"/>
<path opacity="0.3" d="M341.212 328.741C341.212 328.741 343.896 326.92 345.617 325.656" stroke="black" stroke-width="0.75" stroke-miterlimit="10" stroke-linecap="round" stroke-linejoin="round"/>
<path d="M402.064 384.939L400.039 356.764H402.924L403.481 364.402L402.773 364.453L403.836 384.939H402.064Z" fill="#00D6D0"/>
<path d="M403.836 386.204L405.608 364.655L404.848 364.605L405.456 357.978L408.392 358.434L405.658 386.507L403.836 386.204Z" fill="#00D6D0"/>
<path d="M407.076 381.753L409.303 353.578L411.632 353.932L408.898 382.005L407.076 381.753Z" fill="#00D6D0"/>
<path d="M413.201 389.846L412.138 361.62H415.024L415.176 368.651L414.669 368.702L415.074 389.896L413.201 389.846Z" fill="#00D6D0"/>
<path d="M413.1 383.725L418.264 355.955L421.149 356.714L419.783 363.391L419.175 363.29L414.872 384.18L413.1 383.725Z" fill="#00D6D0"/>
<path d="M292.613 295.71C293.22 297.228 293.777 298.796 294.384 300.414C296.207 305.675 291.094 306.586 291.094 306.586C291.094 306.586 292.866 310.177 290.385 313.161C287.904 316.196 284.563 314.729 284.563 314.729C284.563 314.729 283.449 316.348 280.311 316.702C275.805 317.157 274.033 315.438 274.033 315.438L269.274 314.78C268.667 315.134 268.262 317.512 263.301 318.27C258.744 318.978 256.314 316.348 256.314 316.348C255.201 318.776 249.531 318.574 248.721 314.831C247.961 311.34 249.531 309.823 249.733 309.671C246.898 311.846 241.734 306.434 246.746 300.87C248.771 298.593 249.885 297.531 250.644 296.418C248.316 297.076 245.734 294.446 246.696 291.967C247.911 288.831 250.493 289.944 252.72 285.442C255.707 279.422 258.086 277.298 258.238 277.197C262.238 273.099 268.363 271.025 275.096 271.177C280.868 271.278 284.259 273.504 286.335 275.831C288.107 277.854 289.018 280.434 289.17 283.064C289.221 283.621 289.271 284.177 289.322 284.734C290.183 286.656 292.005 290.045 293.979 291.006C296.713 292.372 295.397 296.165 292.613 295.71Z" fill="#21252B"/>
<path d="M240.469 460.207H294.435C298.131 460.207 300.763 456.616 299.7 453.024L273.932 364.251C273.223 361.873 271.097 360.255 268.667 360.255H214.701C211.005 360.255 208.373 363.846 209.436 367.437L235.204 456.211C235.862 458.589 238.039 460.207 240.469 460.207Z" fill="#84888F"/>
<path d="M247.86 460.207H294.891C298.586 460.207 301.219 456.616 300.156 453.024L274.387 364.251C273.679 361.873 271.552 360.255 269.122 360.255H222.092C218.396 360.255 215.764 363.846 216.827 367.437L242.595 456.211C243.304 458.589 245.43 460.207 247.86 460.207Z" fill="#B0B4B9"/>
<path d="M256.922 460.207H314.078C316.761 460.207 318.887 458.032 318.887 455.402C318.887 452.771 316.71 450.596 314.078 450.596H256.922C254.239 450.596 252.113 452.771 252.113 455.402C252.113 458.083 254.289 460.207 256.922 460.207Z" fill="#B0B4B9"/>
<path d="M296.966 535.323H247.86V540.179H296.966V535.323Z" fill="#84888F"/>
<path d="M292.41 539.168C292.005 541.697 293.676 544.074 296.207 544.479C298.738 544.884 301.118 543.214 301.523 540.685C301.928 538.156 300.257 535.779 297.726 535.374C295.194 534.969 292.815 536.639 292.41 539.168Z" fill="#84888F"/>
<path d="M275.451 457.324H270.591V537.296H275.451V457.324Z" fill="#84888F"/>
<path d="M243.253 539.168C242.848 541.697 244.519 544.074 247.05 544.479C249.581 544.884 251.961 543.214 252.366 540.685C252.771 538.156 251.1 535.779 248.569 535.374C246.088 534.969 243.709 536.639 243.253 539.168Z" fill="#84888F"/>
<path d="M241.987 460.207H299.143C301.826 460.207 303.952 458.032 303.952 455.402C303.952 452.771 301.776 450.596 299.143 450.596H241.987C239.304 450.596 237.178 452.771 237.178 455.402C237.178 458.083 239.304 460.207 241.987 460.207Z" fill="#84888F"/>
<path d="M309.066 528.697C366.019 433.044 355.944 421.561 346.174 416.958C346.072 416.908 346.326 416.958 346.174 416.958C334.935 416.149 314.179 407.955 314.179 407.955L285.93 445.589L322.431 452.974C319.596 471.841 319.95 480.339 308.306 502.343C304.003 510.436 310.331 518.985 309.066 528.697Z" fill="#F59696"/>
<path opacity="0.08" d="M336.504 478.771L342.377 466.884C341.972 445.993 341.871 433.55 340.656 423.079C339.795 415.795 333.416 415.744 328.961 416.554C331.492 417.161 333.467 419.235 334.024 424.04C335.391 435.927 336.15 453.328 336.504 478.771Z" fill="black"/>
<path d="M343.744 544.125L336.757 539.319V510.335C336.757 510.335 336.757 510.285 336.707 510.285C336.555 466.935 335.846 440.277 333.973 424.04C332.201 408.663 316.254 421.359 311.85 419.285C309.167 418.021 307.395 413.064 302.079 412.76C292.663 412.305 291.296 399.861 291.296 399.861L284.766 438.355L309.521 439.215C308.863 464.304 319.14 480.289 323.848 506.693C321.266 508.362 319.342 511.448 319.342 516.051C330.784 519.845 329.518 540.736 329.518 540.736L343.744 544.125Z" fill="#F59696"/>
<path d="M302.079 412.811C307.395 413.064 309.167 418.071 311.85 419.336C312.761 419.741 314.128 419.589 315.799 419.134C313.318 417.616 311.496 413.064 306.383 412.811C296.966 412.355 295.599 399.912 295.599 399.912L294.233 408.056C295.802 410.484 298.283 412.608 302.079 412.811Z" fill="#F59696"/>
<path d="M320.709 508.615L304.914 535.273L311.951 544.479L300.409 533.806C300.409 533.806 308.256 516.911 303.396 507.25C307.446 497.386 321.621 499.916 320.709 508.615Z" fill="#F59696"/>
<path d="M310.939 544.428L300.257 540.028C299.092 539.522 298.434 538.257 298.738 536.993C300.105 531.681 303.244 517.72 300.459 509.273C300.459 509.273 301.472 502.394 308.205 502.343C308.205 502.343 312.356 508.514 305.826 519.036L303.952 532.592C303.952 532.592 309.977 537.65 312.306 542.962C312.812 543.872 311.901 544.833 310.939 544.428Z" fill="#00D6D0"/>
<path d="M300.51 509.273L288.512 535.121L289.626 535.576L303.396 510.436L300.51 509.273Z" fill="#00D6D0"/>
<g opacity="0.2">
<path opacity="0.2" d="M320.001 419.285C321.975 420.196 326.177 418.223 330.379 417.11C327.189 415.39 322.532 416.958 318.533 418.274C318.988 418.678 319.494 419.032 320.001 419.285Z" fill="black"/>
<path opacity="0.4" d="M336.757 521.261C334.479 518.125 331.391 509.728 330.834 506.643C326.126 480.289 316.912 464.304 317.571 439.164L292.815 438.305L297.422 411.293C292.157 407.904 291.246 399.811 291.246 399.811L284.715 438.305L309.471 439.164C308.812 464.254 319.089 480.238 323.797 506.643C321.216 508.312 319.292 511.397 319.292 516.001C330.733 519.794 329.467 540.685 329.467 540.685L343.744 544.074L336.757 539.269V521.261Z" fill="black"/>
</g>
<path d="M343.288 544.53H331.442C329.771 544.53 328.404 543.316 328.151 541.697C327.291 535.88 324.81 522.526 319.241 516.051C319.241 516.051 317.571 509.273 323.747 506.693C323.747 506.693 329.974 510.791 327.949 523.032L331.391 536.284C331.391 536.284 339.795 538.915 343.794 543.417C344.25 543.821 343.946 544.53 343.288 544.53Z" fill="#00D6D0"/>
<path d="M319.292 516.051L318.128 544.53H319.292L322.38 516.051H319.292Z" fill="#00D6D0"/>
<path d="M309.926 451.912L345.921 416.908L306.129 404.515L301.219 397.737H243.557V433.246C243.557 443.565 251.91 451.912 262.238 451.912H309.926Z" fill="#3F4249"/>
<path opacity="0.2" d="M270.894 444.88C260.567 444.88 252.214 436.534 252.214 426.215V397.737H243.759V433.246C243.759 443.565 252.113 451.912 262.44 451.912H310.129L317.368 444.88H270.894Z" fill="black"/>
<path d="M173.188 400.266H169.492V544.53H173.188V400.266Z" fill="#61656D"/>
<path d="M390.673 400.266H386.978V544.53H390.673V400.266Z" fill="#61656D"/>
<path d="M429.756 400.266H390.673V544.53H429.756V400.266Z" fill="#61656D"/>
<path opacity="0.5" d="M429.756 400.266H390.673V544.53H429.756V400.266Z" fill="black"/>
<path d="M212.321 400.266H173.239V544.53H212.321V400.266Z" fill="#61656D"/>
<path opacity="0.5" d="M212.321 400.266H173.239V544.53H212.321V400.266Z" fill="black"/>
<path d="M353.818 393.083H429.199C431.173 393.083 432.793 394.702 432.793 396.675C432.793 398.647 431.173 400.266 429.199 400.266H353.818" fill="#61656D"/>
<path opacity="0.5" d="M353.818 393.083H429.199C431.173 393.083 432.793 394.702 432.793 396.675C432.793 398.647 431.173 400.266 429.199 400.266H353.818" fill="black"/>
<path d="M164.784 393.083H395.027C397.001 393.083 398.621 394.702 398.621 396.675C398.621 398.647 397.001 400.266 395.027 400.266H164.784C162.81 400.266 161.19 398.647 161.19 396.675C161.19 394.702 162.759 393.083 164.784 393.083Z" fill="#61656D"/>
<path opacity="0.5" d="M173.188 400.266H169.492V401.48H173.188V400.266Z" fill="black"/>
<path d="M400.545 393.033H417.201C418.314 393.033 419.175 392.122 419.175 391.06V371.889H398.571V391.06C398.571 392.173 399.482 393.033 400.545 393.033Z" fill="#21252B"/>
<path d="M281.374 309.368C282.437 306.737 281.222 303.753 278.589 302.691C275.957 301.628 272.97 302.842 271.907 305.473C270.844 308.103 272.059 311.087 274.691 312.15C277.324 313.212 280.311 311.998 281.374 309.368Z" fill="#21252B"/>
<path d="M365.664 305.018L346.073 329.702L325.519 322.772L319.342 338.959L339.947 344.827C345.87 346.496 352.198 344.017 355.337 338.706L372.347 309.671L365.664 305.018Z" fill="#F39494"/>
<path d="M366.322 303.348C366.322 303.348 366.829 300.718 367.942 296.267C368.297 294.8 370.271 295.356 370.423 295.811C370.778 296.823 370.676 298.189 370.676 299.403C370.727 302.387 379.789 296.115 382.371 294.243C382.826 293.94 383.434 294.243 383.383 294.8C383.282 296.267 381.814 299.706 374.473 307.496C373.663 308.356 372.752 309.266 371.739 310.278C357.109 324.947 366.322 303.348 366.322 303.348Z" fill="#F39494"/>
<path d="M319.343 338.959L325.519 322.772C325.519 322.772 311.546 318.068 303.902 315.438C300.713 314.375 297.321 313.92 293.929 314.123L284.31 314.679L253.884 316.348C244.114 316.955 237.077 325.959 238.849 335.57L241.633 351.2L243.658 365.11V393.033H301.421C301.421 393.033 300.308 382.966 301.978 365.465C302.94 355.196 308.205 353.932 307.142 344.473C306.686 340.476 304.813 337.795 303.143 334.002L307.749 335.469L319.343 338.959Z" fill="#00D6D0"/>
<path d="M264.819 294.496L265.275 312.099C265.326 313.516 264.364 314.78 263.047 315.286L261.073 315.994L265.832 318.523C270.591 321.103 276.261 321.305 281.121 319.13C282.032 318.726 282.842 318.27 283.703 317.714L288.512 314.477L286.234 313.971C284.968 313.718 283.956 312.605 283.753 311.34L280.311 290.5L264.819 294.496Z" fill="#F59696"/>
<path d="M278.083 308.103L277.273 308.204C271.249 308.761 265.984 304.41 265.376 298.442L263.908 283.267C263.706 281.243 265.174 279.524 267.199 279.321L281.424 277.905C284.006 277.652 286.335 279.574 286.588 282.154L287.955 296.267C288.411 302.185 284.057 307.547 278.083 308.103Z" fill="#F59696"/>
<path d="M276.007 292.675C276.666 292.675 277.172 292.169 277.172 291.512C277.172 290.854 276.666 290.348 276.007 290.348C275.349 290.348 274.843 290.854 274.843 291.512C274.843 292.169 275.349 292.675 276.007 292.675Z" fill="#21252B"/>
<path d="M276.514 291.512C276.666 291.512 276.767 291.411 276.767 291.259C276.767 291.107 276.666 291.006 276.514 291.006C276.362 291.006 276.261 291.107 276.261 291.259C276.261 291.411 276.362 291.512 276.514 291.512Z" fill="white"/>
<path d="M285.171 292.22C285.829 292.22 286.335 291.714 286.335 291.057C286.335 290.399 285.829 289.893 285.171 289.893C284.512 289.893 284.006 290.399 284.006 291.057C284.006 291.714 284.512 292.22 285.171 292.22Z" fill="#21252B"/>
<path d="M285.626 290.955C285.778 290.955 285.879 290.854 285.879 290.702C285.879 290.551 285.778 290.45 285.626 290.45C285.474 290.45 285.373 290.551 285.373 290.702C285.424 290.854 285.525 290.955 285.626 290.955Z" fill="white"/>
<g opacity="0.15">
<path opacity="0.15" d="M281.272 298.139L279.703 298.392C279.501 298.392 279.349 298.29 279.298 298.139C279.298 297.936 279.399 297.784 279.551 297.734L281.121 297.481C281.526 297.43 281.779 297.025 281.728 296.671C281.677 296.267 281.273 296.014 280.918 296.014C280.716 296.014 280.564 295.913 280.513 295.761C280.513 295.558 280.614 295.407 280.766 295.357C281.526 295.255 282.285 295.811 282.336 296.52C282.589 297.329 282.082 298.038 281.272 298.139Z" fill="black"/>
</g>
<path d="M266.186 298.998C266.186 298.998 261.073 300.111 259.301 295.204C257.529 290.247 263.706 288.426 265.275 293.434L266.794 298.948L266.186 298.998Z" fill="#F59696"/>
<path opacity="0.15" d="M260.516 292.27C261.022 291.815 261.529 291.613 261.984 291.663C262.491 291.663 262.946 291.967 263.351 292.473C263.756 292.979 264.111 293.687 264.212 294.395L264.313 294.951C264.364 295.356 263.706 295.558 263.655 295.103C263.503 294.547 263.503 294.547 263.503 294.547C263.503 294.344 263.25 293.434 262.845 292.979C262.541 292.625 262.238 292.422 261.934 292.372C261.63 292.321 261.326 292.523 260.921 292.827C260.769 292.928 260.567 292.928 260.415 292.827C260.364 292.574 260.364 292.372 260.516 292.27Z" fill="black"/>
<path d="M264.566 298.341C265.123 298.29 265.579 297.835 265.528 297.278C265.478 296.722 265.022 296.267 264.465 296.317C263.908 296.368 263.452 296.823 263.503 297.379C263.554 297.936 264.009 298.391 264.566 298.341Z" fill="#00D6D0"/>
<path opacity="0.15" d="M265.022 298.239C264.414 298.341 263.807 297.885 263.756 297.278C263.756 297.076 263.807 296.823 263.857 296.671C263.604 296.874 263.503 297.228 263.503 297.582C263.604 298.189 264.111 298.543 264.667 298.442C264.87 298.442 265.123 298.341 265.224 298.189C265.174 298.138 265.073 298.189 265.022 298.239Z" fill="black"/>
<path opacity="0.15" d="M282.943 306.434C281.323 307.496 279.45 308.053 277.425 308.255C276.969 308.305 276.564 308.305 276.109 308.305C275.957 308.305 275.754 308.305 275.603 308.305C275.552 308.305 275.552 308.305 275.501 308.305C275.248 308.255 274.995 308.305 274.691 308.255C274.59 308.255 274.489 308.204 274.388 308.204C272.666 308.002 271.35 307.496 270.489 307.041C270.338 306.94 270.135 306.99 270.034 307.142C269.933 307.294 269.983 307.496 270.135 307.597C271.249 308.154 272.97 308.811 275.198 308.963C276.413 309.772 278.488 310.733 281.019 310.632C281.88 310.582 282.69 310.43 283.449 310.228L282.943 306.434Z" fill="black"/>
<path d="M282.285 299.909C282.437 299.909 282.538 300.06 282.488 300.212C281.981 301.376 280.868 302.235 279.551 302.286C278.235 302.337 277.071 301.628 276.412 300.566C276.362 300.414 276.412 300.263 276.615 300.263L282.285 299.909Z" fill="white"/>
<path d="M261.073 315.943C261.529 324.34 277.425 330.36 277.425 330.36C277.425 330.36 288.968 322.823 288.512 314.426L285.879 313.819L261.073 315.943Z" fill="#F59696"/>
<path d="M285.272 287.566C283.804 287.769 282.589 288.628 281.829 289.792C280.463 289.438 279.349 289.792 278.893 289.994C277.931 288.578 276.21 287.718 274.337 287.971C271.755 288.325 269.932 290.702 270.236 293.282C270.591 295.862 272.97 297.683 275.552 297.379C278.134 297.025 279.956 294.648 279.653 292.068C279.602 291.512 279.399 291.056 279.197 290.551C279.653 290.399 280.564 290.146 281.526 290.399C281.171 291.158 281.07 292.018 281.171 292.928C281.526 295.508 283.905 297.329 286.487 297.025C289.069 296.671 290.891 294.294 290.588 291.714C290.334 289.084 287.904 287.263 285.272 287.566ZM275.653 296.772C273.426 297.076 271.35 295.508 271.046 293.232C270.743 290.955 272.312 288.932 274.59 288.628C276.868 288.325 278.893 289.893 279.197 292.169C279.45 294.395 277.83 296.469 275.653 296.772ZM286.487 296.368C284.259 296.671 282.184 295.103 281.88 292.827C281.576 290.601 283.146 288.527 285.424 288.224C287.651 287.92 289.727 289.488 290.031 291.765C290.334 293.99 288.714 296.064 286.487 296.368Z" fill="white"/>
<path d="M266.692 324.391L285.778 322.368C285.778 322.368 284.816 323.986 282.234 326.465C280.108 328.539 277.425 330.36 277.425 330.36C277.425 330.36 274.641 329.298 271.502 327.527C268.464 325.858 266.692 324.391 266.692 324.391Z" fill="#21252B"/>
<path d="M295.65 381.398L300.307 382.005L310.179 381.145C311.242 381.247 311.698 381.449 312.457 382.106L318.583 387.569C318.988 387.924 318.988 388.531 318.684 388.885C318.381 389.289 317.773 389.39 317.368 389.036L311.597 384.787L315.343 389.239C315.748 389.745 315.596 390.503 314.938 390.756C314.584 390.908 314.229 390.807 313.976 390.554L308.964 385.647L312.761 389.39C313.217 389.846 313.065 390.604 312.457 390.807C312.154 390.959 311.85 390.857 311.597 390.706L306.231 386.811L309.876 389.492C310.281 389.795 310.281 390.453 309.876 390.756C309.622 390.908 309.369 390.959 309.116 390.857L304.256 388.834C303.801 388.632 303.244 388.632 302.788 388.885L300.915 389.795C299.396 390.554 297.726 390.959 296.055 390.959H293.017C288.664 390.857 295.65 381.398 295.65 381.398Z" fill="#F59696"/>
<path opacity="0.15" d="M309.825 389.643C309.774 389.643 309.774 389.643 309.724 389.593L306.382 387.165C306.332 387.114 306.281 387.013 306.332 386.912C306.382 386.861 306.484 386.811 306.585 386.861L309.926 389.289C309.977 389.34 310.027 389.441 309.977 389.492C309.926 389.593 309.876 389.643 309.825 389.643Z" fill="black"/>
<path opacity="0.15" d="M312.711 389.542C312.66 389.542 312.609 389.542 312.609 389.492L309.015 385.951C308.964 385.9 308.964 385.799 309.015 385.698C309.066 385.597 309.167 385.647 309.268 385.698L312.862 389.239C312.913 389.289 312.913 389.39 312.862 389.492C312.812 389.542 312.711 389.542 312.711 389.542Z" fill="black"/>
<path opacity="0.15" d="M305.319 388.177C306.433 388.733 308.306 389.694 308.964 390.048C309.876 390.554 310.129 389.896 310.129 389.896C310.179 390.2 310.078 390.503 309.825 390.706C309.572 390.858 309.319 390.908 309.066 390.807L304.206 388.784C303.75 388.581 303.193 388.581 302.738 388.834L303.699 388.278C304.206 387.974 304.813 387.974 305.319 388.177Z" fill="black"/>
<path d="M295.65 381.398L262.794 373.912L259.858 350.492L241.987 353.072L245.481 374.974C246.493 381.601 251.454 386.356 258.137 387.114L293.017 390.857L295.65 381.398Z" fill="#F59696"/>
<path d="M287.601 390.857H326.784C327.088 390.857 327.392 391.11 327.392 391.464V392.476C327.392 392.78 327.139 393.083 326.784 393.083H287.601C287.297 393.083 286.993 392.83 286.993 392.476V391.464C286.993 391.161 287.246 390.857 287.601 390.857Z" fill="#21252B"/>
<path opacity="0.6" d="M287.601 390.857H326.784C327.088 390.857 327.392 391.11 327.392 391.464V392.476C327.392 392.78 327.139 393.083 326.784 393.083H287.601C287.297 393.083 286.993 392.83 286.993 392.476V391.464C286.993 391.161 287.246 390.857 287.601 390.857Z" fill="black"/>
<path d="M313.976 390.857H382.269C382.573 390.857 382.877 391.11 382.877 391.464V392.476C382.877 392.78 382.624 393.083 382.269 393.083H313.976C313.673 393.083 313.369 392.83 313.369 392.476V391.464C313.47 391.161 313.673 390.857 313.976 390.857Z" fill="#21252B"/>
<g opacity="0.6">
<path opacity="0.6" d="M381.409 391.262H311.901C311.799 391.262 311.698 391.161 311.698 391.06C311.698 390.959 311.799 390.857 311.901 390.857H381.409C381.51 390.857 381.611 390.959 381.611 391.06C381.611 391.161 381.459 391.262 381.409 391.262Z" fill="black"/>
</g>
<path d="M313.824 390.857H324.101C324.911 390.857 325.569 390.301 325.721 389.492L334.328 344.22C334.53 343.208 333.72 342.297 332.708 342.297H322.481C321.671 342.297 321.013 342.854 320.861 343.663L312.255 388.935C312.053 389.947 312.812 390.857 313.824 390.857Z" fill="#21252B"/>
<path opacity="0.6" d="M313.824 390.857H324.101C324.911 390.857 325.569 390.301 325.721 389.492L334.328 344.22C334.53 343.208 333.72 342.297 332.708 342.297H322.481C321.671 342.297 321.013 342.854 320.861 343.663L312.255 388.935C312.053 389.947 312.812 390.857 313.824 390.857Z" fill="black"/>
<path d="M315.293 390.857H381.358C382.168 390.857 382.826 390.301 382.978 389.492L391.584 344.22C391.787 343.208 390.977 342.297 389.964 342.297H323.949C323.139 342.297 322.481 342.854 322.329 343.663L313.723 388.935C313.521 389.947 314.28 390.857 315.293 390.857Z" fill="#21252B"/>
<path opacity="0.6" d="M353.059 365.313C352.654 366.223 353.109 367.033 354.021 367.033C354.071 367.033 354.122 367.033 354.173 367.033C353.109 368.196 351.489 369.056 350.021 369.005C348.098 368.955 347.136 367.387 348.047 365.414C348.908 363.492 351.186 361.974 353.109 361.974C354.324 362.025 355.185 362.632 355.388 363.644C354.476 363.745 353.464 364.402 353.059 365.313Z" fill="black"/>
<path opacity="0.15" d="M257.884 335.013L266.946 370.472L295.65 381.398L262.794 373.912L257.884 335.013Z" fill="black"/>
<path opacity="0.15" d="M303.193 334.103C300.864 328.033 299.194 314.375 299.194 314.375C299.649 314.375 301.877 314.881 301.877 314.881C302.434 321.103 307.446 335.418 308.205 335.722L303.193 334.103Z" fill="black"/>
<path d="M269.933 279.169C269.933 279.169 269.376 288.73 264.921 292.574C264.921 292.574 264.516 290.045 261.073 290.399C261.073 290.399 260.769 289.792 260.263 286.959C259.757 284.076 261.579 272.239 274.742 272.998C274.742 272.998 278.944 272.138 284.766 277.146C290.638 282.154 287.145 287.617 287.145 287.617C287.145 287.617 277.374 286.302 269.933 279.169Z" fill="#21252B"/>
<path opacity="0.5" d="M215.814 389.542H223.256L224.269 393.032H216.827L215.814 389.542Z" fill="black"/>
<path d="M281.576 234.555H326.379C329.417 234.555 331.847 236.983 331.847 240.018V253.119C331.847 256.154 329.417 258.582 326.379 258.582H287.753C287.55 258.582 287.348 258.582 287.145 258.582C283.956 258.734 281.07 260.352 279.096 262.882L277.425 265.006H273.679L276.109 253.119V240.018C276.058 236.983 278.539 234.555 281.576 234.555Z" fill="#B0B4B9"/>
<path d="M279.096 234.555H323.899C326.936 234.555 329.366 236.983 329.366 240.018V253.119C329.366 256.154 326.936 258.582 323.899 258.582H285.272C282.538 258.582 279.906 259.543 277.83 261.364L273.628 265.006V253.119V240.018C273.679 236.983 276.109 234.555 279.096 234.555Z" fill="#D7DADC"/>
<path d="M288.967 249.477C290.638 249.477 292.005 248.111 292.005 246.442C292.005 244.773 290.638 243.407 288.967 243.407C287.297 243.407 285.93 244.773 285.93 246.442C285.93 248.111 287.297 249.477 288.967 249.477Z" fill="#84888F"/>
<path d="M301.522 249.477C303.193 249.477 304.56 248.111 304.56 246.442C304.56 244.773 303.193 243.407 301.522 243.407C299.852 243.407 298.485 244.773 298.485 246.442C298.485 248.111 299.852 249.477 301.522 249.477Z" fill="#84888F"/>
<path d="M314.078 249.477C315.748 249.477 317.115 248.111 317.115 246.442C317.115 244.773 315.748 243.407 314.078 243.407C312.407 243.407 311.04 244.773 311.04 246.442C311.04 248.111 312.407 249.477 314.078 249.477Z" fill="#84888F"/>
<path d="M622.839 284.632H568.569C564.924 284.632 561.938 287.617 561.938 291.259V357.118C561.938 360.76 564.924 363.745 568.569 363.745H615.397H622.839C626.484 363.745 629.471 360.76 629.471 357.118V291.259C629.471 287.617 626.484 284.632 622.839 284.632Z" fill="#B0B4B9"/>
<path d="M619.498 284.632H565.228C561.583 284.632 558.596 287.617 558.596 291.259V357.118C558.596 360.76 561.583 363.745 565.228 363.745H619.498C623.143 363.745 626.13 360.76 626.13 357.118V291.259C626.13 287.617 623.143 284.632 619.498 284.632Z" fill="white"/>
<path d="M571.86 294.243H612.056C615.043 294.243 617.422 296.671 617.422 299.605V347.963C617.422 350.947 614.992 353.325 612.056 353.325H571.86C568.873 353.325 566.494 350.897 566.494 347.963V299.605C566.494 296.621 568.924 294.243 571.86 294.243Z" fill="#00D6D0"/>
<path opacity="0.7" d="M571.86 294.243H612.056C615.043 294.243 617.422 296.671 617.422 299.605V347.963C617.422 350.947 614.992 353.325 612.056 353.325H571.86C568.873 353.325 566.494 350.897 566.494 347.963V299.605C566.494 296.621 568.924 294.243 571.86 294.243Z" fill="white"/>
<path opacity="0.5" d="M606.69 343.511H577.226C576.214 343.511 575.404 342.702 575.404 341.69C575.404 340.679 576.214 339.869 577.226 339.869H606.69C607.703 339.869 608.513 340.679 608.513 341.69C608.513 342.702 607.703 343.511 606.69 343.511Z" fill="white"/>
<path d="M581.985 325.099C581.732 325.099 581.428 325.099 581.124 325.049C579.758 324.846 578.542 324.087 577.732 322.975C576.062 320.648 576.568 317.41 578.897 315.741L595.856 303.5C597.375 302.387 599.248 301.983 601.121 302.235C602.994 302.539 604.614 303.551 605.728 305.068C606.842 306.586 607.247 308.457 606.994 310.329C606.69 312.2 605.678 313.819 604.159 314.932L590.642 324.694C590.287 324.947 589.832 324.846 589.579 324.543C589.326 324.189 589.427 323.733 589.731 323.48L603.247 313.718C604.462 312.858 605.222 311.593 605.475 310.126C605.728 308.66 605.374 307.193 604.513 306.029C603.652 304.815 602.387 304.056 600.919 303.804C599.451 303.551 597.983 303.905 596.818 304.765L579.859 317.006C578.239 318.169 577.834 320.445 579.049 322.115C579.606 322.924 580.466 323.43 581.428 323.582C582.39 323.733 583.352 323.531 584.162 322.924L597.274 313.516C598.134 312.858 598.337 311.644 597.729 310.733C597.426 310.329 596.97 310.025 596.464 309.924C595.957 309.823 595.401 309.975 594.996 310.278L585.63 317.006C585.276 317.259 584.82 317.158 584.567 316.854C584.314 316.5 584.415 316.045 584.719 315.792L594.084 309.064C595.654 307.951 597.831 308.305 598.944 309.874C600.058 311.442 599.704 313.617 598.134 314.73L585.022 324.138C584.111 324.745 583.048 325.099 581.985 325.099Z" fill="#00D6D0"/>
<path d="M599.805 336.379H584.061C583.048 336.379 582.238 335.57 582.238 334.558C582.238 333.547 583.048 332.737 584.061 332.737H599.805C600.818 332.737 601.628 333.547 601.628 334.558C601.628 335.57 600.818 336.379 599.805 336.379Z" fill="white"/>
<path d="M524.981 118.466H590.591C593.882 118.466 596.514 121.096 596.514 124.384V166.116C596.514 169.404 593.882 172.034 590.591 172.034H531.664C531.461 172.034 531.259 172.034 531.056 172.034C527.614 172.186 524.424 174.007 522.298 176.688L520.476 178.964H516.426L519.058 166.065V124.334C519.008 121.096 521.691 118.466 524.981 118.466Z" fill="#B0B4B9"/>
<path d="M521.792 118.466H587.402C590.693 118.466 593.325 121.096 593.325 124.384V166.116C593.325 169.404 590.693 172.034 587.402 172.034H528.474C525.488 172.034 522.653 173.096 520.425 175.018L515.869 178.964V166.065V124.334C515.869 121.096 518.552 118.466 521.792 118.466Z" fill="white"/>
<path d="M575.201 149.474H528.272C526.804 149.474 525.589 148.26 525.589 146.793V144.668C525.589 143.201 526.804 141.987 528.272 141.987H575.201C576.669 141.987 577.884 143.201 577.884 144.668V146.793C577.834 148.26 576.669 149.474 575.201 149.474Z" fill="#00D6D0"/>
<path opacity="0.7" d="M575.201 149.474H528.272C526.804 149.474 525.589 148.26 525.589 146.793V144.668C525.589 143.201 526.804 141.987 528.272 141.987H575.201C576.669 141.987 577.884 143.201 577.884 144.668V146.793C577.834 148.26 576.669 149.474 575.201 149.474Z" fill="white"/>
<path d="M515.869 165.559C510.756 165.559 506.604 161.411 506.604 156.303C506.604 151.194 510.756 147.046 515.869 147.046C520.982 147.046 525.133 151.194 525.133 156.303C525.133 161.411 520.982 165.559 515.869 165.559Z" fill="#00D6D0"/>
<path d="M513.945 160.551L510.401 157.011C510.199 156.808 510.199 156.505 510.401 156.302L511.313 155.392C511.515 155.19 511.819 155.19 512.021 155.392L514.299 157.668L519.767 152.205C519.969 152.003 520.273 152.003 520.476 152.205L521.387 153.116C521.59 153.318 521.59 153.622 521.387 153.824L514.654 160.551C514.451 160.754 514.097 160.754 513.945 160.551Z" fill="white"/>
<path d="M582.896 161.867H535.967C534.499 161.867 533.284 160.653 533.284 159.186V157.061C533.284 155.594 534.499 154.38 535.967 154.38H582.896C584.364 154.38 585.579 155.594 585.579 157.061V159.186C585.579 160.653 584.364 161.867 582.896 161.867Z" fill="#00D6D0"/>
<path opacity="0.7" d="M582.896 161.867H535.967C534.499 161.867 533.284 160.653 533.284 159.186V157.061C533.284 155.594 534.499 154.38 535.967 154.38H582.896C584.364 154.38 585.579 155.594 585.579 157.061V159.186C585.579 160.653 584.364 161.867 582.896 161.867Z" fill="white"/>
<path d="M552.015 156.353H537.384V157.415H552.015V156.353Z" fill="#00D6D0"/>
<path d="M545.535 158.882H537.384V159.945H545.535V158.882Z" fill="#00D6D0"/>
<path d="M582.896 136.929H535.967C534.499 136.929 533.284 135.715 533.284 134.248V132.124C533.284 130.657 534.499 129.443 535.967 129.443H582.896C584.364 129.443 585.579 130.657 585.579 132.124V134.248C585.579 135.715 584.364 136.929 582.896 136.929Z" fill="#00D6D0"/>
<path opacity="0.7" d="M582.896 136.929H535.967C534.499 136.929 533.284 135.715 533.284 134.248V132.124C533.284 130.657 534.499 129.443 535.967 129.443H582.896C584.364 129.443 585.579 130.657 585.579 132.124V134.248C585.579 135.715 584.364 136.929 582.896 136.929Z" fill="white"/>
<path d="M552.015 131.416H537.384V132.478H552.015V131.416Z" fill="#00D6D0"/>
<path d="M545.535 133.945H537.384V135.007H545.535V133.945Z" fill="#00D6D0"/>
<path d="M368.398 132.478V169.657C368.398 171.629 366.778 173.248 364.804 173.248H307.091C305.117 173.248 303.497 171.629 303.497 169.657V132.478C303.497 131.314 304.054 130.252 304.965 129.595C305.572 129.139 306.281 128.886 307.091 128.886H364.804C365.715 128.886 366.525 129.19 367.133 129.746C367.892 130.404 368.398 131.416 368.398 132.478Z" fill="#B0B4B9"/>
<path d="M365.361 132.478V169.657C365.361 171.629 363.741 173.248 361.766 173.248H304.054C302.079 173.248 300.459 171.629 300.459 169.657V132.478C300.459 131.314 301.016 130.252 301.928 129.595C302.535 129.139 303.244 128.886 304.054 128.886H361.766C362.677 128.886 363.487 129.19 364.095 129.746C364.905 130.404 365.361 131.416 365.361 132.478Z" fill="white"/>
<path d="M364.095 129.746L334.986 149.676C333.771 150.536 332.151 150.485 330.885 149.676L301.927 129.645C302.535 129.19 303.244 128.937 304.054 128.937H361.766C362.677 128.886 363.487 129.24 364.095 129.746Z" fill="#00D6D0"/>
<path opacity="0.7" d="M364.095 129.746L334.986 149.676C333.771 150.536 332.151 150.485 330.885 149.676L301.927 129.645C302.535 129.19 303.244 128.937 304.054 128.937H361.766C362.677 128.886 363.487 129.24 364.095 129.746Z" fill="white"/>
<path d="M300.459 140.369C306.788 140.369 311.951 135.209 311.951 128.886C311.951 122.563 306.788 117.404 300.459 117.404C294.131 117.404 288.967 122.563 288.967 128.886C288.967 135.26 294.131 140.369 300.459 140.369Z" fill="#00D6D0"/>
<path d="M301.978 123.727C301.269 123.019 300.206 123.019 299.497 123.727L297.118 126.104C296.46 126.762 296.46 127.875 297.118 128.583C297.624 129.089 298.333 129.19 298.991 128.987V132.882C298.991 133.843 299.751 134.653 300.763 134.653C301.725 134.653 302.535 133.894 302.535 132.882V125.042C302.484 124.536 302.282 124.081 301.978 123.727Z" fill="white"/>
<path d="M574.493 143.808H528.981V144.871H574.493V143.808Z" fill="#00D6D0"/>
<path d="M537.081 146.388H528.93V147.45H537.081V146.388Z" fill="#00D6D0"/>
<path d="M419.226 374.266H398.621V375.986H419.226V374.266Z" fill="black"/>
<path d="M419.226 376.947H398.621V378.161H419.226V376.947Z" fill="black"/>
<path d="M410.822 353.83L409.911 362.379L411.176 362.531L412.087 353.982L410.822 353.83Z" fill="#00D6D0"/>
<path d="M560.469 426.165H590.237C591.098 426.165 591.756 425.507 591.756 424.647C591.756 423.787 591.098 423.13 590.237 423.13H560.469V426.165Z" fill="#AFB3B8"/>
<path d="M586.389 424.698H556.369V517.164H586.44V424.698H586.389Z" fill="#AFB3B8"/>
<path d="M557.28 424.698H465.345V517.164H557.28V424.698Z" fill="#D7DADC"/>
<path d="M552.622 510.082H469.648V437.546L552.622 437.647V510.082ZM470.306 509.425H551.914V438.305H470.306V509.425Z" fill="#AFB3B8"/>
<path d="M461.953 426.165H560.52C561.381 426.165 562.039 425.507 562.039 424.647C562.039 423.787 561.381 423.13 560.52 423.13H461.953C461.093 423.13 460.434 423.787 460.434 424.647C460.485 425.507 461.143 426.165 461.953 426.165Z" fill="#D7DADC"/>
<path d="M552.622 473.359H469.648V474.016H552.622V473.359Z" fill="#AFB3B8"/>
<path d="M507.566 449.231C508.832 449.231 509.895 448.219 509.895 446.904C509.895 445.639 508.882 444.577 507.566 444.577C506.301 444.577 505.238 445.589 505.238 446.904C505.238 448.168 506.301 449.231 507.566 449.231Z" fill="#AFB3B8"/>
<path opacity="0.15" d="M508.427 446.904C508.427 445.892 507.769 445.032 506.858 444.729C507.06 444.627 507.364 444.577 507.617 444.577C508.883 444.577 509.946 445.589 509.946 446.904C509.946 448.219 508.933 449.231 507.617 449.231C507.364 449.231 507.111 449.18 506.858 449.079C507.769 448.775 508.427 447.915 508.427 446.904Z" fill="black"/>
<path d="M507.566 484.892C508.832 484.892 509.895 483.88 509.895 482.565C509.895 481.3 508.882 480.238 507.566 480.238C506.301 480.238 505.238 481.25 505.238 482.565C505.238 483.88 506.301 484.892 507.566 484.892Z" fill="#AFB3B8"/>
<path opacity="0.15" d="M508.427 482.616C508.427 481.604 507.769 480.744 506.858 480.441C507.06 480.339 507.364 480.289 507.617 480.289C508.883 480.289 509.946 481.3 509.946 482.616C509.946 483.88 508.933 484.942 507.617 484.942C507.364 484.942 507.111 484.892 506.858 484.791C507.769 484.487 508.427 483.627 508.427 482.616Z" fill="black"/>
<path d="M562.039 429.25L557.28 426.165H465.345V427.581L562.039 429.25Z" fill="#AFB3B8"/>
<path d="M580.517 517.164L582.846 542.759C582.998 543.67 582.339 544.58 581.378 544.58C580.77 544.58 580.163 544.175 579.96 543.568L573.278 517.164H580.517Z" fill="#D7DADC"/>
<path d="M579.656 532.036L576.872 531.378L573.278 517.164H580.568L582.896 542.759C583.048 543.467 582.643 544.176 581.985 544.428L579.656 532.036Z" fill="#AFB3B8"/>
<path d="M554.344 517.164L556.673 542.759C556.875 543.67 556.166 544.58 555.204 544.58C554.597 544.58 553.989 544.175 553.787 543.568L547.104 517.164H554.344Z" fill="#D7DADC"/>
<path d="M551.914 519.997L547.762 519.187L547.054 517.164H554.344L556.673 542.759C556.824 543.467 556.419 544.176 555.761 544.428L551.914 519.997Z" fill="#AFB3B8"/>
<path d="M496.733 517.164L494.404 542.759C494.201 543.67 494.91 544.58 495.872 544.58C496.479 544.58 497.087 544.175 497.289 543.568L503.972 517.164H496.733Z" fill="#D7DADC"/>
<path d="M498.049 530.771L495.568 530.164L496.783 517.164H504.073L497.391 543.568C497.188 544.175 496.581 544.58 495.973 544.58C495.923 544.58 495.923 544.58 495.872 544.58L498.049 530.771Z" fill="#AFB3B8"/>
<path d="M469.901 517.164L467.573 542.759C467.421 543.67 468.129 544.58 469.041 544.58C469.648 544.58 470.256 544.175 470.458 543.568L477.141 517.164H469.901Z" fill="#D7DADC"/>
<path d="M472.736 519.39L469.547 518.833L469.901 517.215H477.191L470.509 543.619C470.306 544.226 469.699 544.631 469.091 544.631C469.041 544.631 469.041 544.631 468.99 544.631L472.736 519.39Z" fill="#AFB3B8"/>
<path d="M512.173 412.912H487.519V423.079H512.173V412.912Z" fill="#D7DADC"/>
<path d="M487.519 412.912H512.173H546.345V415.643V423.13H512.173V414.632H487.519V412.912Z" fill="#AFB3B8"/>
<path d="M487.519 412.912H512.173H546.345V415.643V423.13H512.173V414.632H487.519V412.912Z" fill="#AFB3B8"/>
<path d="M512.173 421.41H487.519V423.079H512.173V421.41Z" fill="#AFB3B8"/>
<path d="M512.173 421.41H487.519V423.079H512.173V421.41Z" fill="#AFB3B8"/>
<path d="M532.322 416.453H517.894V420.095H532.322V416.453Z" fill="#D7DADC"/>
<path d="M535.916 418.021C535.916 416.351 537.283 415.036 538.903 415.036C540.574 415.036 541.89 416.402 541.89 418.021C541.89 419.69 540.523 421.005 538.903 421.005C537.283 421.005 535.916 419.639 535.916 418.021ZM536.979 418.021C536.979 419.083 537.891 419.993 538.954 419.993C540.068 419.993 540.928 419.083 540.928 418.021C540.928 416.908 540.017 416.048 538.954 416.048C537.84 416.048 536.979 416.908 536.979 418.021Z" fill="#D7DADC"/>
<path d="M516.426 404.414H496.581V412.962H516.426V404.414Z" fill="#D7DADC"/>
<path d="M496.581 404.414H516.426H543.966V406.589V412.912H516.426V405.729H496.581V404.414Z" fill="#AFB3B8"/>
<path d="M516.831 411.242H496.581V412.912H516.831V411.242Z" fill="#AFB3B8"/>
<path d="M496.581 404.414H516.426H543.966V406.589V412.912H516.426V405.729H496.581V404.414Z" fill="#AFB3B8"/>
<path d="M516.426 411.242H496.581V412.912H516.426V411.242Z" fill="#AFB3B8"/>
<path d="M532.676 407.246H521.083V410.18H532.676V407.246Z" fill="#D7DADC"/>
<path d="M535.562 408.511C535.562 407.196 536.625 406.083 537.992 406.083C539.308 406.083 540.422 407.145 540.422 408.511C540.422 409.877 539.359 410.939 537.992 410.939C536.676 410.888 535.562 409.826 535.562 408.511ZM536.423 408.511C536.423 409.371 537.131 410.079 537.992 410.079C538.852 410.079 539.612 409.371 539.612 408.511C539.612 407.651 538.903 406.892 537.992 406.892C537.081 406.892 536.423 407.6 536.423 408.511Z" fill="#D7DADC"/>
<path opacity="0.15" d="M543.966 412.355H496.581V412.912H543.966V412.355Z" fill="black"/>
<path d="M653.771 209.314V241.586C653.771 243.053 652.607 244.216 651.139 244.216H609.12C607.652 244.216 606.487 243.053 606.487 241.586V214.524C606.487 213.057 607.652 211.894 609.12 211.894H624.004C624.105 211.894 624.206 211.894 624.307 211.894C625.32 211.843 626.332 211.337 627.041 210.578L629.471 207.948C630.231 207.139 631.344 206.633 632.458 206.633H651.088C652.607 206.684 653.771 207.847 653.771 209.314Z" fill="#B0B4B9"/>
<path d="M651.746 209.314V241.586C651.746 243.053 650.582 244.216 649.114 244.216H607.095C605.627 244.216 604.462 243.053 604.462 241.586V214.524C604.462 213.057 605.627 211.894 607.095 211.894H622.029C622.131 211.894 622.232 211.894 622.333 211.894C623.346 211.843 624.358 211.337 625.067 210.578L627.497 207.948C628.256 207.139 629.37 206.633 630.484 206.633H649.114C650.531 206.684 651.746 207.847 651.746 209.314Z" fill="#D7DADC"/>
<path d="M653.771 209.314V211.944H624.307C625.32 211.894 626.333 211.438 627.041 210.629L629.471 207.999C630.231 207.189 631.344 206.683 632.458 206.683H651.088C652.607 206.683 653.771 207.847 653.771 209.314Z" fill="#61656D"/>
<path d="M651.746 209.314V211.944H622.282C623.295 211.894 624.307 211.438 625.016 210.629L627.446 207.999C628.206 207.189 629.319 206.683 630.433 206.683H649.063C650.531 206.683 651.746 207.847 651.746 209.314Z" fill="#84888F"/>
<path d="M640.811 476.343C640.811 476.343 639.748 465.215 648.203 458.336C656.657 451.456 669.718 453.834 669.718 453.834C669.718 453.834 665.364 477.051 640.811 476.343Z" fill="#00D6D0"/>
<path opacity="0.3" d="M640.811 476.343C640.811 476.343 639.748 465.215 648.203 458.336C656.657 451.456 669.718 453.834 669.718 453.834C669.718 453.834 665.364 477.051 640.811 476.343Z" fill="black"/>
<path d="M640.811 476.343C640.811 476.343 650.177 458.993 669.769 453.834C669.718 453.834 641.267 448.725 640.811 476.343Z" fill="#00D6D0"/>
<path d="M641.014 459.094C641.014 459.094 636.457 457.678 634.686 449.989C632.863 442.301 636.761 433.853 636.761 433.853C636.761 433.853 643.545 439.316 644.102 447.915C644.608 456.565 641.014 459.094 641.014 459.094Z" fill="#00D6D0"/>
<path d="M624.206 491.619C624.206 491.619 619.144 492.58 613.828 486.46C608.512 480.339 608.411 470.678 608.411 470.678C608.411 470.678 617.473 472.246 622.029 479.884C626.586 487.522 624.206 491.619 624.206 491.619Z" fill="#00D6D0"/>
<path d="M630.281 515.292L628.813 433.6L630.281 427.935L631.648 515.292H630.281Z" fill="#21252B"/>
<path d="M626.788 515.292L623.599 477.81L622.333 478.67L625.573 515.748L626.788 515.292Z" fill="#21252B"/>
<path d="M639.647 515.545L641.014 451.76L642.381 452.67L641.166 514.888L639.647 515.545Z" fill="#21252B"/>
<path d="M639.647 494.907C639.647 494.907 632.914 490.658 629.876 481.553C626.839 472.448 627.142 466.732 627.142 466.732C627.142 466.732 638.078 471.639 641.064 479.682C644.001 487.725 639.647 494.907 639.647 494.907Z" fill="#00D6D0"/>
<path d="M629.218 437.293C629.218 437.293 626.788 431.729 629.117 425.254C631.395 418.779 642.533 415.036 642.533 415.036C642.533 415.036 638.229 430.211 629.218 437.293Z" fill="#00D6D0"/>
<path d="M629.218 437.293C629.218 437.293 628.914 430.009 632.154 424.242C635.394 418.476 642.482 415.087 642.482 415.087C642.482 415.087 622.738 419.943 629.218 437.293Z" fill="#00D6D0"/>
<path d="M627.143 466.732C627.143 466.732 637.622 475.635 640.609 495.009C640.609 494.958 650.177 478.721 627.143 466.732Z" fill="#00D6D0"/>
<path opacity="0.3" d="M641.014 459.094C641.014 459.094 636.457 457.678 634.686 449.989C632.863 442.301 636.761 433.853 636.761 433.853C636.761 433.853 643.545 439.316 644.102 447.915C644.608 456.565 641.014 459.094 641.014 459.094Z" fill="black"/>
<path opacity="0.3" d="M624.206 491.619C624.206 491.619 619.144 492.58 613.828 486.46C608.512 480.339 608.411 470.678 608.411 470.678C608.411 470.678 617.473 472.246 622.029 479.884C626.586 487.522 624.206 491.619 624.206 491.619Z" fill="black"/>
<path opacity="0.3" d="M639.647 494.907C639.647 494.907 632.914 490.658 629.876 481.553C626.839 472.448 627.142 466.732 627.142 466.732C627.142 466.732 638.078 471.639 641.064 479.682C644.001 487.725 639.647 494.907 639.647 494.907Z" fill="black"/>
<path opacity="0.3" d="M629.218 437.293C629.218 437.293 626.788 431.729 629.117 425.254C631.395 418.779 642.533 415.036 642.533 415.036C642.533 415.036 638.229 430.211 629.218 437.293Z" fill="black"/>
<path d="M625.472 510.436C625.472 510.436 622.536 500.775 628.762 493.238C634.989 485.701 646.937 485.448 646.937 485.448C646.937 485.448 647.291 506.744 625.472 510.436Z" fill="#00D6D0"/>
<path opacity="0.3" d="M625.472 510.436C625.472 510.436 622.536 500.775 628.762 493.238C634.989 485.701 646.937 485.448 646.937 485.448C646.937 485.448 647.291 506.744 625.472 510.436Z" fill="black"/>
<path d="M625.472 510.436C625.472 510.436 627.193 497.689 646.987 485.448C646.987 485.448 620.662 485.752 625.472 510.436Z" fill="#00D6D0"/>
<path d="M642.279 458.841C642.279 458.841 638.078 454.491 637.926 447.612C637.774 440.733 646.937 433.347 646.937 433.347C646.937 433.347 648.202 449.079 642.279 458.841Z" fill="#00D6D0"/>
<path d="M642.279 458.841C642.279 458.841 636.508 443.919 646.937 433.347C646.937 433.347 628.813 445.234 642.279 458.841Z" fill="#00D6D0"/>
<path opacity="0.3" d="M642.279 458.841C642.279 458.841 639.849 454.643 639.748 447.814C639.596 440.935 646.937 433.398 646.937 433.398C646.937 433.398 648.202 449.079 642.279 458.841Z" fill="black"/>
<path d="M631.091 465.316C631.091 465.316 626.332 464.911 622.89 457.83C619.447 450.748 621.371 441.643 621.371 441.643C621.371 441.643 629.167 445.437 631.597 453.783C634.078 462.079 631.091 465.316 631.091 465.316Z" fill="#00D6D0"/>
<path opacity="0.3" d="M631.091 465.316C631.091 465.316 626.332 464.911 622.89 457.83C619.447 450.748 621.371 441.643 621.371 441.643C621.371 441.643 629.167 445.437 631.597 453.783C634.078 462.079 631.091 465.316 631.091 465.316Z" fill="black"/>
<path d="M623.194 486.308C623.194 486.308 618.536 482.464 617.625 475.635C616.714 468.806 624.966 460.46 624.966 460.46C624.966 460.46 627.953 475.939 623.194 486.308Z" fill="#00D6D0"/>
<path opacity="0.3" d="M623.194 486.308C623.194 486.308 618.536 482.464 617.625 475.635C616.714 468.806 624.966 460.46 624.966 460.46C624.966 460.46 627.953 475.939 623.194 486.308Z" fill="black"/>
<path d="M623.194 486.308C623.194 486.308 617.271 474.37 624.966 460.46C624.966 460.46 609.474 473.258 623.194 486.308Z" fill="#00D6D0"/>
<path d="M612.664 514.736C612.664 514.736 613.474 536.74 619.903 544.884H648.051C654.48 536.689 655.29 514.736 655.29 514.736H612.664Z" fill="#83878E"/>
<path d="M620.308 514.888C622.232 516.608 624.561 518.378 627.041 519.137C629.826 519.997 632.711 519.137 635.496 518.732C638.584 518.277 641.723 519.137 644.76 518.176C646.633 517.619 649.519 516.81 650.126 514.736C650.228 514.483 649.772 514.331 649.721 514.635C649.316 516.051 647.798 516.608 646.532 517.113C645.368 517.569 644.203 518.024 642.938 518.226C640.356 518.631 637.774 518.024 635.141 518.429C632.408 518.833 629.623 519.643 626.94 518.732C624.459 517.923 622.586 516.102 620.359 514.787C620.308 514.736 620.258 514.837 620.308 514.888Z" fill="#61656D"/>
<path d="M615.549 535.172C617.979 535.576 619.194 537.549 620.966 539.016C622.333 540.129 623.903 540.635 625.624 540.837C629.876 541.292 636.407 539.724 638.28 544.934C638.381 545.137 638.685 545.086 638.634 544.833C637.217 540.331 631.699 540.584 627.953 540.584C625.067 540.584 622.485 540.179 620.359 538.106C618.941 536.79 617.625 535.222 615.549 535.121C615.549 535.071 615.549 535.121 615.549 535.172Z" fill="#61656D"/>
<path d="M615.549 514.736C618.587 517.164 619.903 520.705 622.131 523.79C624.257 526.724 627.345 528.444 630.889 528.95C632.914 529.253 634.939 529 637.014 529.152C639.596 529.304 641.318 530.569 643.14 532.238C644.406 533.351 645.722 534.565 647.443 534.919C649.418 535.323 650.886 533.907 652.759 533.553C653.012 533.502 652.911 533.098 652.657 533.148C651.797 533.3 651.038 533.705 650.228 534.059C648.81 534.716 647.544 534.716 646.127 534.008C644.456 533.098 643.241 531.631 641.723 530.467C638.432 527.989 634.584 529.152 630.788 528.545C626.636 527.888 623.649 525.611 621.473 522.121C619.802 519.44 618.384 516.355 615.651 514.635C615.549 514.635 615.499 514.736 615.549 514.736Z" fill="#61656D"/>
<path d="M613.828 526.37H654.126L654.632 522.678H613.372L613.828 526.37Z" fill="#61656D"/>
</svg>
