<svg width="29" height="29" viewBox="0 0 29 29" fill="none" xmlns="http://www.w3.org/2000/svg">
<path d="M14.5002 1.20834C7.15954 1.20834 1.2085 7.15938 1.2085 14.5C1.2085 21.8409 7.15954 27.7917 14.5002 27.7917C21.8411 27.7917 27.7918 21.8409 27.7918 14.5C27.7918 7.15938 21.8411 1.20834 14.5002 1.20834ZM14.5002 25.375C8.49414 25.375 3.62516 20.506 3.62516 14.5C3.62516 8.49398 8.49414 3.625 14.5002 3.625C20.5062 3.625 25.3752 8.49398 25.3752 14.5C25.3752 20.506 20.5062 25.375 14.5002 25.375Z" fill="#C4C4C4"/>
<path d="M15.7082 13.9994V7.25C15.7082 6.5827 15.1671 6.04166 14.4998 6.04166C13.8325 6.04166 13.2915 6.5827 13.2915 7.25V14.5C13.2915 14.5027 13.2924 14.5054 13.2924 14.5082C13.2927 14.5846 13.3003 14.661 13.3154 14.7362C13.3226 14.7734 13.3362 14.8069 13.3468 14.8432C13.3586 14.883 13.3676 14.9235 13.3836 14.9625C13.4012 15.0042 13.4247 15.0422 13.4465 15.0815C13.4628 15.1117 13.4758 15.1419 13.4948 15.1706C13.5392 15.2374 13.5897 15.2999 13.6461 15.3558L17.063 18.773C17.5349 19.2448 18.3007 19.2448 18.7722 18.773C19.2441 18.3011 19.2441 17.5353 18.7722 17.0644L15.7082 13.9994Z" fill="#C4C4C4"/>
</svg>
