<svg width="127" height="127" viewBox="0 0 127 127" fill="none" xmlns="http://www.w3.org/2000/svg">
<path d="M15.8748 21.1666C15.8748 18.243 18.2429 15.875 21.1665 15.875H37.0415V5.29163H21.1665C12.3956 5.29163 5.2915 12.3957 5.2915 21.1666V37.0416H15.8748V21.1666Z" fill="#727272" fill-opacity="0.76"/>
<path d="M79.375 5.29163H47.625V15.875H79.375V5.29163Z" fill="#727272" fill-opacity="0.76"/>
<path d="M15.8748 47.625H5.2915V79.375H15.8748V47.625Z" fill="#727272" fill-opacity="0.76"/>
<path d="M21.1665 111.125C18.2429 111.125 15.8748 108.757 15.8748 105.833V89.9584H5.2915V105.833C5.2915 114.604 12.3956 121.708 21.1665 121.708H37.0415V111.125H21.1665Z" fill="#727272" fill-opacity="0.76"/>
<path d="M121.708 47.625H111.125V79.375H121.708V47.625Z" fill="#727272" fill-opacity="0.76"/>
<path d="M105.833 5.29163H89.9585V15.875H105.833C108.757 15.875 111.125 18.243 111.125 21.1666V37.0416H121.708V21.1666C121.708 12.3957 114.604 5.29163 105.833 5.29163Z" fill="#727272" fill-opacity="0.76"/>
<path d="M79.375 111.125H47.625V121.708H79.375V111.125Z" fill="#727272" fill-opacity="0.76"/>
<path d="M111.125 105.833C111.125 108.757 108.757 111.125 105.833 111.125H89.9585V121.708H105.833C114.604 121.708 121.708 114.604 121.708 105.833V89.9584H111.125V105.833Z" fill="#727272" fill-opacity="0.76"/>
</svg>
