<svg width="248" height="49" viewBox="0 0 248 49" fill="none" xmlns="http://www.w3.org/2000/svg">
<g clip-path="url(#clip0)">
<path d="M78.5401 33.4041C81.5685 33.4041 83.5487 32.3579 85.4128 30.1887L88.9072 33.6751C87.6226 35.1651 86.032 36.3619 84.2433 37.1844C82.4545 38.0069 80.5095 38.4359 78.5401 38.4423C70.1937 38.4423 63.9816 32.2029 63.9816 24.4926C63.9816 16.7823 70.1951 10.5415 78.5401 10.5415C80.5095 10.5479 82.4545 10.9769 84.2433 11.7994C86.032 12.6219 87.6226 13.8187 88.9072 15.3087L85.4506 18.7574C83.5879 16.5868 81.5685 15.5797 78.5401 15.5797C72.6778 15.5797 69.417 19.2198 69.417 24.4926C69.417 29.7654 72.6778 33.4041 78.5401 33.4041Z" fill="white"/>
<path d="M103.077 17.5171C109.25 17.5171 113.948 22.2061 113.948 27.979C113.948 33.752 109.25 38.4423 103.077 38.4423C96.9037 38.4423 92.2057 33.7533 92.2057 27.979C92.2057 22.2047 96.9037 17.5171 103.077 17.5171ZM103.077 33.5983C106.648 33.5983 108.707 31.2349 108.707 27.979C108.707 24.7231 106.648 22.3611 103.077 22.3611C99.5053 22.3611 97.4467 24.7245 97.4467 27.979C97.4467 31.2335 99.5053 33.5983 103.077 33.5983Z" fill="white"/>
<path d="M123.653 17.904V21.199C124.933 18.9502 127.107 17.5171 130.446 17.5171C135.649 17.5171 137.822 20.6556 137.822 25.6547V38.0581H132.581V26.4326C132.581 23.7201 131.223 22.3638 128.505 22.3638C125.865 22.3638 123.653 23.7201 123.653 27.2065V38.0541H118.411V17.904H123.653Z" fill="white"/>
<path d="M148.304 17.904V21.199C149.585 18.9502 151.76 17.5171 155.099 17.5171C160.3 17.5171 162.475 20.6556 162.475 25.6547V38.0581H157.229V26.4326C157.229 23.7201 155.87 22.3638 153.152 22.3638C150.511 22.3638 148.299 23.7201 148.299 27.2065V38.0541H143.058V17.904H148.304Z" fill="white"/>
<path d="M177.616 33.5983C179.912 33.5983 181.382 32.4361 182.468 30.8857L186.078 34.4894C184.255 36.9688 181.382 38.4423 177.616 38.4423C171.443 38.4423 166.745 34.1402 166.745 27.979C166.745 21.8178 171.443 17.5171 177.616 17.5171C181.382 17.5171 184.216 19.0284 186.041 21.47L182.468 25.0737C181.387 23.5232 179.901 22.3611 177.616 22.3611C174.239 22.3611 171.986 24.5303 171.986 27.979C171.986 31.4277 174.238 33.5983 177.616 33.5983Z" fill="white"/>
<path d="M197.337 26.0039H202.19V25.2664C202.19 23.4464 200.987 22.1656 198.424 22.1656C196.328 22.1656 194.309 22.7049 192.794 23.8711L189.958 20.6152C192.132 18.7169 194.306 17.5143 198.266 17.5143C203.818 17.5143 207.428 20.4588 207.428 25.2637V38.054H202.188V35.9616C201.061 37.5121 199.12 38.4423 196.17 38.4423C191.161 38.4423 188.327 36.4659 188.327 32.2406C188.33 27.011 193.183 26.0039 197.337 26.0039ZM197.337 34.1793C199.589 34.1793 202.19 33.4041 202.19 30.3046V29.6454H198.114C195.046 29.6454 193.656 30.4543 193.656 32.0478C193.649 33.4432 195.28 34.1793 197.337 34.1793Z" fill="white"/>
<path d="M224.124 23.1363C219.699 23.1363 217.524 24.1043 217.524 27.979V38.054H212.283V17.904H217.524V21.1207C218.728 19.1443 220.979 17.904 224.901 17.904V23.1363H224.124Z" fill="white"/>
<path d="M238.1 17.5171C243.884 17.5171 248 21.8178 248 27.979V29.5335H232.781C233.286 32.3647 235.227 33.7965 238.184 33.7965C240.669 33.7965 242.067 33.2922 243.891 31.394L247.346 34.4948C245.444 37.0132 241.873 38.4477 238.107 38.4477C231.545 38.4477 227.436 34.1456 227.436 27.9844C227.436 21.8232 231.926 17.5171 238.1 17.5171ZM238.1 22.167C235.46 22.167 233.597 23.3682 232.936 25.7707H242.565C242.099 23.3682 240.74 22.167 238.1 22.167Z" fill="white"/>
<path d="M23.329 21.2475C22.0759 18.8298 21.4242 16.1467 21.4289 13.4247C21.4336 10.7027 22.0946 8.0218 23.356 5.60848C23.6203 5.1026 23.9106 4.61075 24.2259 4.1349C21.8525 1.67035 18.6277 0.200545 15.2073 0.0243405C11.7869 -0.151864 8.42762 0.978765 5.81257 3.18633C3.19753 5.3939 1.52302 8.51266 1.12955 11.9085C0.736068 15.3043 1.65316 18.7222 3.69434 21.4672L0 30.9248L7.83442 26.5095L9.1271 25.7815C11.6503 26.878 14.4492 27.1777 17.148 26.6402C19.8468 26.1028 22.3162 24.754 24.2246 22.775C23.9102 22.2986 23.6198 21.8068 23.3547 21.3014L23.329 21.2475ZM49.5851 20.9778C49.5838 20.9716 49.5838 20.9652 49.5851 20.959C50.9502 18.9361 51.7384 16.5808 51.8653 14.1452C51.9922 11.7096 51.4531 9.28538 50.3056 7.13213C49.1581 4.97887 47.4454 3.17765 45.351 1.92132C43.2566 0.664986 40.8592 0.00084445 38.4157 0C38.2806 0 38.132 9.87404e-07 37.9875 0.00943832C34.4659 0.111565 31.1261 1.59305 28.6902 4.13355C27.8037 5.05484 27.052 6.09649 26.4574 7.22765C25.4537 9.14911 24.9296 11.284 24.9296 13.4509C24.9296 15.6178 25.4537 17.7527 26.4574 19.6741C26.7348 20.2035 27.048 20.7134 27.3948 21.2003C29.2341 23.7985 31.9355 25.6629 35.0203 26.4632C38.1051 27.2635 41.3742 26.9479 44.2483 25.5725C44.2495 25.5718 44.2509 25.5714 44.2523 25.5714C44.2538 25.5714 44.2552 25.5718 44.2564 25.5725H44.2658L45.2803 26.1441L53.3349 30.6767C53.3349 30.6767 53.3443 30.6767 53.347 30.6767C53.3502 30.6763 53.3532 30.6751 53.356 30.6734C53.3587 30.6717 53.361 30.6694 53.3628 30.6668C53.3646 30.6641 53.3658 30.6611 53.3663 30.6579C53.3668 30.6548 53.3667 30.6515 53.3659 30.6484L49.5851 20.9778ZM31.2864 11.1361H36.0856V6.34459H40.7187V11.1293H45.5207V15.7563H40.7187V20.5451H36.0856V15.7617H31.2864V11.1361ZM35.3251 30.1132C35.2725 30.1038 35.2198 30.0943 35.1698 30.0822C32.0246 29.4623 29.102 28.0163 26.7032 25.8934C26.4979 25.7181 26.3102 25.5347 26.1346 25.3541C25.1607 26.4448 24.1881 27.3494 23.094 28.0774L23.0616 28.099C21.703 28.8869 20.2408 29.4818 18.7175 29.8665L18.6891 29.8759C17.2438 30.186 15.5662 30.3451 13.54 30.364H13.5144C12.7255 30.3734 11.8813 30.364 10.9749 30.3235L26.3291 49L41.6102 30.5716C39.5043 30.6699 37.3942 30.5156 35.3251 30.1118V30.1132Z" fill="white"/>
</g>
<defs>
<clipPath id="clip0">
<rect width="248" height="49" fill="white"/>
</clipPath>
</defs>
</svg>
