<svg width="1920" height="120" viewBox="0 0 1920 120" fill="none" xmlns="http://www.w3.org/2000/svg">
<path opacity="0.25" d="M0 0V46.29C76.464 68.49 165.744 78.46 252.8 74.29C365.376 68.92 470.928 40.98 583.68 36.79C701.824 32.43 819.744 53.67 932.8 72.05C1043.63 90.05 1154.08 96.93 1267.84 85.13C1325.68 79.13 1379.6 67.29 1434.96 55.79C1583.18 25 1780.8 -14.29 1920 52.47V0H0Z" fill="white"/>
<path opacity="0.5" d="M0 0V15.81C20.8 36.92 44.224 56.86 76.304 72.05C159.056 111.27 264 111 359.328 91.58C409.168 81.43 455.472 65.51 502.8 51.78C568.272 32.78 638.368 5.78 712.128 2.11C770.144 -0.74 825.568 11.53 869.888 33.67C920.72 59.06 969.6 95.67 1035.7 106.67C1100.4 117.46 1165.86 99.98 1226.3 82.39C1286.75 64.8 1346.56 43.39 1413.38 39.34C1508.94 33.49 1594.62 62.22 1683.62 78.18C1731.94 86.84 1778.02 84.35 1822.96 70.68C1858.85 59.79 1899.76 43.75 1920 21.44V0H0Z" fill="white"/>
<path d="M0 0V5.63C239.888 59 502.544 71.32 761.328 42.57C830.128 34.93 896.096 22.45 965.504 16.11C1059.9 7.48 1145.47 28.35 1230.4 51.51C1324.69 77.22 1417.6 95.24 1521.92 90C1660.37 83 1797.86 44.29 1920 5.19V0H0Z" fill="white"/>
</svg>
