<svg width="1920" height="120" viewBox="0 0 1920 120" fill="none" xmlns="http://www.w3.org/2000/svg">
<path opacity="0.25" d="M1920 120V73.71C1843.54 51.51 1754.26 41.54 1667.2 45.71C1554.62 51.08 1449.07 79.02 1336.32 83.21C1218.18 87.57 1100.26 66.33 987.2 47.95C876.368 29.95 765.92 23.07 652.16 34.87C594.32 40.87 540.4 52.71 485.04 64.21C336.816 95 139.2 134.29 0 67.53V120H1920Z" fill="white"/>
<path opacity="0.5" d="M1920 120V104.19C1899.2 83.08 1875.78 63.14 1843.7 47.95C1760.94 8.73 1656 9 1560.67 28.42C1510.83 38.57 1464.53 54.49 1417.2 68.22C1351.73 87.22 1281.63 114.22 1207.87 117.89C1149.86 120.74 1094.43 108.47 1050.11 86.33C999.28 60.94 950.4 24.33 884.304 13.33C819.6 2.54 754.144 20.02 693.696 37.61C633.248 55.2 573.44 76.61 506.624 80.66C411.056 86.51 325.376 57.78 236.384 41.82C188.064 33.16 141.984 35.65 97.04 49.32C61.152 60.21 20.24 76.25 0 98.56V120H1920Z" fill="white"/>
<path d="M1920 120V114.37C1680.11 61 1417.46 48.68 1158.67 77.43C1089.87 85.07 1023.9 97.55 954.496 103.89C860.096 112.52 774.528 91.65 689.6 68.49C595.312 42.78 502.4 24.76 398.08 30C259.632 37 122.144 75.71 0 114.81V120H1920Z" fill="white"/>
</svg>
