<svg width="17" height="17" viewBox="0 0 17 17" fill="none" xmlns="http://www.w3.org/2000/svg">
<path d="M15.7343 14.1346L12.4008 10.8028C13.0895 9.76525 13.4927 8.52297 13.4927 7.1875C13.4927 3.56894 10.5472 0.625 6.92676 0.625C3.30631 0.625 0.36084 3.56894 0.36084 7.1875C0.36084 10.8061 3.30631 13.75 6.92676 13.75C8.26292 13.75 9.50585 13.3471 10.5439 12.6587L13.8774 15.9904C14.3896 16.503 15.2221 16.503 15.7343 15.9904C16.2471 15.4779 16.2471 14.6471 15.7343 14.1346ZM2.33062 7.1875C2.33062 4.65438 4.39231 2.59375 6.92676 2.59375C9.4612 2.59375 11.5229 4.65438 11.5229 7.1875C11.5229 9.72062 9.4612 11.7812 6.92676 11.7812C4.39231 11.7812 2.33062 9.72062 2.33062 7.1875Z" fill="white"/>
</svg>
