<svg width="19" height="19" viewBox="0 0 19 19" fill="none" xmlns="http://www.w3.org/2000/svg">
<path d="M6.56624 6.30275C6.56624 6.30275 3.00938 6.6965 0.636649 6.95974C0.422788 6.98562 0.233689 7.1285 0.162777 7.34562C0.0918655 7.56275 0.162777 7.78887 0.320359 7.93175C2.08303 9.53937 4.73153 11.9469 4.73153 11.9469C4.72928 11.9469 4.0044 15.449 3.52265 17.7856C3.48213 17.9971 3.55867 18.221 3.74327 18.3549C3.92674 18.4887 4.16311 18.491 4.34883 18.3864C6.42441 17.2074 9.53328 15.4344 9.53328 15.4344C9.53328 15.4344 12.6433 17.2074 14.7155 18.3875C14.9046 18.491 15.141 18.4887 15.3244 18.3549C15.509 18.221 15.5856 17.9971 15.5439 17.7867C15.0622 15.449 14.3384 11.9469 14.3384 11.9469C14.3384 11.9469 16.9869 9.53937 18.7496 7.93512C18.9072 7.78775 18.977 7.56162 18.9072 7.34562C18.8374 7.12962 18.6483 6.98675 18.4344 6.962C16.0617 6.6965 12.5037 6.30275 12.5037 6.30275C12.5037 6.30275 11.0292 3.0425 10.0466 0.868996C9.95425 0.674371 9.76065 0.538246 9.53328 0.538246C9.30591 0.538246 9.11119 0.675496 9.02339 0.868996C8.03963 3.0425 6.56624 6.30275 6.56624 6.30275Z" fill="#FBBC05"/>
</svg>
