<svg width="80" height="80" viewBox="0 0 80 80" fill="none" xmlns="http://www.w3.org/2000/svg">
<path d="M39.9997 3.3335C19.7497 3.3335 3.33301 19.7502 3.33301 40.0002C3.33301 60.251 19.7497 76.6668 39.9997 76.6668C60.2505 76.6668 76.6663 60.251 76.6663 40.0002C76.6663 19.7502 60.2505 3.3335 39.9997 3.3335ZM39.9997 70.0002C23.4313 70.0002 9.99967 56.5685 9.99967 40.0002C9.99967 23.4318 23.4313 10.0002 39.9997 10.0002C56.568 10.0002 69.9997 23.4318 69.9997 40.0002C69.9997 56.5685 56.568 70.0002 39.9997 70.0002Z" fill="white"/>
<path d="M43.3337 38.619V19.9998C43.3337 18.159 41.8412 16.6665 40.0003 16.6665C38.1595 16.6665 36.667 18.159 36.667 19.9998V39.9998C36.667 40.0073 36.6695 40.0148 36.6695 40.0223C36.6703 40.2332 36.6912 40.444 36.7328 40.6515C36.7528 40.754 36.7903 40.8465 36.8195 40.9465C36.852 41.0565 36.877 41.1682 36.9212 41.2757C36.9695 41.3907 37.0345 41.4957 37.0945 41.604C37.1395 41.6873 37.1753 41.7707 37.2278 41.8498C37.3503 42.034 37.4895 42.2065 37.6453 42.3607L47.0712 51.7873C48.3728 53.089 50.4853 53.089 51.7862 51.7873C53.0878 50.4857 53.0878 48.3732 51.7862 47.074L43.3337 38.619Z" fill="white"/>
</svg>
